<?xml version="1.0" encoding="utf-8"?>
<!-- Generator: Adobe Illustrator 26.0.0, SVG Export Plug-In . SVG Version: 6.00 Build 0)  -->
<svg version="1.1" id="Layer_1" xmlns="http://www.w3.org/2000/svg" xmlns:xlink="http://www.w3.org/1999/xlink" x="0px" y="0px"
	 viewBox="0 0 383 127" style="enable-background:new 0 0 383 127;" xml:space="preserve">
<style type="text/css">
	
		.st0{clip-path:url(#SVGID_00000018231404758604918770000016436922452435994815_);fill:url(#SVGID_00000064312599268446968810000007616445060748262799_);}
	
		.st1{clip-path:url(#SVGID_00000144298022503072496220000018351409637138733242_);fill:url(#SVGID_00000103241789240966499660000008839699563375272856_);}
	.st2{clip-path:url(#SVGID_00000005240295130370723470000003712709318003910309_);fill:none;}
	
		.st3{clip-path:url(#SVGID_00000083081228074621085100000006643266035017876097_);fill:url(#SVGID_00000162345287129965264360000014184590070935280002_);}
	
		.st4{clip-path:url(#SVGID_00000080199769877036899510000007517108021623520390_);fill:url(#SVGID_00000000202496777849308200000002134786735313564833_);}
	
		.st5{clip-path:url(#SVGID_00000023985609449077949320000003499796993857663360_);fill:url(#SVGID_00000169532878195550704570000002558427827322869921_);}
	
		.st6{clip-path:url(#SVGID_00000167361132591464523170000006433456463127975614_);fill:url(#SVGID_00000072278827337903054290000009107179898642020021_);}
	
		.st7{clip-path:url(#SVGID_00000154409221864714467810000017728331971439102129_);fill:none;stroke:#F6EB16;stroke-width:0.5;stroke-miterlimit:10;}
	
		.st8{clip-path:url(#SVGID_00000140723464762567438950000014917787056066660994_);fill:none;stroke:#ED2224;stroke-width:0.5;stroke-miterlimit:10;}
	
		.st9{clip-path:url(#SVGID_00000142890437731285002430000016775412961772839354_);fill:url(#SVGID_00000105413009022703109460000010771778888399388812_);}
	
		.st10{clip-path:url(#SVGID_00000016782522598279719970000008938187460808785551_);fill:url(#SVGID_00000087397357295839132520000003158274270324876729_);}
	
		.st11{clip-path:url(#SVGID_00000085212442096279127490000003859594722364872091_);fill:url(#SVGID_00000145776820756292157420000017830108485687427511_);}
	
		.st12{clip-path:url(#SVGID_00000158031260570381098200000005489556254666026655_);fill:url(#SVGID_00000160911524932065461670000002119720559671739533_);}
	.st13{clip-path:url(#SVGID_00000135693190374747211760000002081123623630470815_);}
	.st14{clip-path:url(#SVGID_00000151511005022147962460000007123484135866460808_);}
	.st15{clip-path:url(#SVGID_00000137840678839672487930000000681932146951878048_);}
	.st16{clip-path:url(#SVGID_00000014602318901161783960000010614231500133261213_);}
	.st17{clip-path:url(#SVGID_00000072278532009848373320000006449471528437666196_);}
	.st18{clip-path:url(#SVGID_00000049199373808745925120000001884574299439070385_);}
	.st19{clip-path:url(#SVGID_00000000182455742698222600000009383484266502934703_);}
	.st20{clip-path:url(#SVGID_00000134231905032181059830000005131320827336699778_);}
	.st21{clip-path:url(#SVGID_00000026141640373158304930000012086919849200538038_);}
	.st22{clip-path:url(#SVGID_00000044164429127978831060000012867566274189386157_);}
	.st23{clip-path:url(#SVGID_00000162332093952161773750000005812726039197964210_);}
	.st24{clip-path:url(#SVGID_00000117636165460571928680000014480556000813393828_);}
	.st25{clip-path:url(#SVGID_00000155840654317625817570000010276197487965227141_);}
	.st26{clip-path:url(#SVGID_00000124130008119881185350000002734840401171905717_);}
	.st27{clip-path:url(#SVGID_00000083774230808697715740000008887748600459044999_);}
	.st28{clip-path:url(#SVGID_00000150091713310083608580000017290804333017158320_);}
	.st29{clip-path:url(#SVGID_00000021821331673248760820000004332589533549811098_);}
	.st30{clip-path:url(#SVGID_00000164506379187730608010000014247809432428665760_);}
</style>
<g>
	<g>
		<defs>
			<path id="SVGID_1_" d="M72.8,71.8H61.4c1.2,0,2.4,0.1,3.5,0.2c5.7,0.5,11.1,2.4,15.9,5.3C85.1,80,89,83.5,92,87.8L80.8,71.8
				L80,70.8C77.8,71.5,75.3,71.8,72.8,71.8"/>
		</defs>
		<clipPath id="SVGID_00000028286166081105767290000017420259164029985675_">
			<use xlink:href="#SVGID_1_"  style="overflow:visible;"/>
		</clipPath>
		
			<linearGradient id="SVGID_00000047749245801462837320000015823741055966731907_" gradientUnits="userSpaceOnUse" x1="-1255.0065" y1="203.3099" x2="-1254.2097" y2="203.3099" gradientTransform="matrix(38.42 0 0 38.42 48278.7461 -7731.8975)">
			<stop  offset="0" style="stop-color:#6BC9C9"/>
			<stop  offset="1" style="stop-color:#75D1F7"/>
		</linearGradient>
		
			<rect x="61.4" y="70.8" style="clip-path:url(#SVGID_00000028286166081105767290000017420259164029985675_);fill:url(#SVGID_00000047749245801462837320000015823741055966731907_);" width="30.6" height="17"/>
	</g>
</g>
<g>
	<g>
		<defs>
			<path id="SVGID_00000065043825377299865010000015167936672270641594_" d="M103.1,103.7L103.1,103.7L103.1,103.7z"/>
		</defs>
		<clipPath id="SVGID_00000094590957054731900580000016757089481618168985_">
			<use xlink:href="#SVGID_00000065043825377299865010000015167936672270641594_"  style="overflow:visible;"/>
		</clipPath>
		
			<linearGradient id="SVGID_00000070094472832018351520000002651517517503016378_" gradientUnits="userSpaceOnUse" x1="103.1191" y1="103.726" x2="103.1255" y2="103.726" gradientTransform="matrix(8.000000e-03 0 0 8.000000e-03 -682.5596 -364.5279)">
			<stop  offset="0" style="stop-color:#6BC9C9"/>
			<stop  offset="1" style="stop-color:#75D1F7"/>
		</linearGradient>
		
			<path style="clip-path:url(#SVGID_00000094590957054731900580000016757089481618168985_);fill:url(#SVGID_00000070094472832018351520000002651517517503016378_);" d="
			M103.1,103.7L103.1,103.7L103.1,103.7z"/>
	</g>
</g>
<g>
	<g>
		<defs>
			<rect id="SVGID_00000082360910256516641530000008606481160697070233_" x="-361.6" y="-215" width="1115.5" height="557.8"/>
		</defs>
		<clipPath id="SVGID_00000096756527457599134290000011525624997846923700_">
			<use xlink:href="#SVGID_00000082360910256516641530000008606481160697070233_"  style="overflow:visible;"/>
		</clipPath>
		
			<line style="clip-path:url(#SVGID_00000096756527457599134290000011525624997846923700_);fill:none;" x1="95.4" y1="40" x2="95.4" y2="40"/>
	</g>
</g>
<g>
	<g>
		<defs>
			<path id="SVGID_00000096038417232159896780000000362219303985440403_" d="M80.8,47.9L80.8,47.9L80.8,47.9z"/>
		</defs>
		<clipPath id="SVGID_00000140008684466993775740000001558123852519722924_">
			<use xlink:href="#SVGID_00000096038417232159896780000000362219303985440403_"  style="overflow:visible;"/>
		</clipPath>
		
			<linearGradient id="SVGID_00000133506180292861791470000010622915789909022911_" gradientUnits="userSpaceOnUse" x1="7832.8184" y1="5656.3252" x2="7833.6104" y2="5656.3252" gradientTransform="matrix(8.800000e-02 0 0 8.800000e-02 -608.4795 -449.8076)">
			<stop  offset="0" style="stop-color:#FFFFFF"/>
			<stop  offset="1" style="stop-color:#1D1D1B"/>
		</linearGradient>
		
			<path style="clip-path:url(#SVGID_00000140008684466993775740000001558123852519722924_);fill:url(#SVGID_00000133506180292861791470000010622915789909022911_);" d="
			M80.8,47.9L80.8,47.9L80.8,47.9z"/>
	</g>
</g>
<g>
	<g>
		<defs>
			<path id="SVGID_00000062901255899315937680000007587183881414243229_" d="M57,24c2.8,0,5.4,0.5,7.9,1.3c0,0,0,0,0,0h0
				c6.8,2.4,12.2,7.8,14.6,14.6c0.7,1.9,1.1,4,1.3,6.1c0,0.6,0.1,1.2,0.1,1.8c0,0.4,0,0.7-0.1,1.1c-0.5,3.8-3.7,6.7-7.5,6.9
				c2.6,0,5.2-0.5,7.5-1.3c3.8-1.3,7.2-3.7,9.9-6.6c2-2.3,3.6-5,4.7-7.9c0,0,0,0,0,0c-2.4-6.8-7.8-12.2-14.6-14.6
				c-2.5-0.9-5.2-1.4-8-1.4C72.8,24,57,24,57,24z"/>
		</defs>
		<clipPath id="SVGID_00000146477362249961711140000006994680330717708960_">
			<use xlink:href="#SVGID_00000062901255899315937680000007587183881414243229_"  style="overflow:visible;"/>
		</clipPath>
		
			<linearGradient id="SVGID_00000172411671843014626470000013298966791496649116_" gradientUnits="userSpaceOnUse" x1="-1258.1184" y1="186.6147" x2="-1257.3217" y2="186.6147" gradientTransform="matrix(36.2019 36.2019 -36.2019 36.2019 52360.6953 38812.8789)">
			<stop  offset="0" style="stop-color:#F79658"/>
			<stop  offset="1" style="stop-color:#FFE508"/>
		</linearGradient>
		
			<polygon style="clip-path:url(#SVGID_00000146477362249961711140000006994680330717708960_);fill:url(#SVGID_00000172411671843014626470000013298966791496649116_);" points="
			76.2,4.8 111.3,40 76.2,75.1 41,40 		"/>
	</g>
</g>
<g>
	<g>
		<defs>
			<path id="SVGID_00000162342354087166246320000018316604383176895907_" d="M90.7,47.9c-2.7,3-6.1,5.3-9.9,6.6
				c-2.4,0.8-4.9,1.3-7.5,1.3h-8.4c-4.4,0-8.5,1.8-11.4,4.7c-0.2,0.2-0.4,0.4-0.5,0.6c-2.5,2.8-4,6.5-4,10.6h23.9
				c2.5,0,4.9-0.4,7.2-1.1c0.3-0.1,0.5-0.2,0.8-0.3c6.8-2.4,12.2-7.8,14.6-14.6c0.9-2.5,1.4-5.2,1.4-8c0-2.8-0.5-5.5-1.4-7.9
				C94.4,43,92.7,45.7,90.7,47.9"/>
		</defs>
		<clipPath id="SVGID_00000162340744376709856450000001688437307696471451_">
			<use xlink:href="#SVGID_00000162342354087166246320000018316604383176895907_"  style="overflow:visible;"/>
		</clipPath>
		
			<linearGradient id="SVGID_00000045592825978143542020000009572654289442367899_" gradientUnits="userSpaceOnUse" x1="-1272.5922" y1="203.9823" x2="-1271.7955" y2="203.9823" gradientTransform="matrix(49.125 -49.125 49.125 49.125 52548.3945 -72460.875)">
			<stop  offset="0" style="stop-color:#69CCE3"/>
			<stop  offset="1" style="stop-color:#F7EC2E"/>
		</linearGradient>
		
			<polygon style="clip-path:url(#SVGID_00000162340744376709856450000001688437307696471451_);fill:url(#SVGID_00000045592825978143542020000009572654289442367899_);" points="
			33,55.9 72.8,16.1 112.7,55.9 72.8,95.8 		"/>
	</g>
</g>
<g>
	<g>
		<defs>
			<path id="SVGID_00000161607335279327672770000002701156614584017801_" d="M78.9,97c3,4.2,7.8,6.8,13,6.8h11.2l-6.4-9.1L92,87.8
				c-3-4.3-6.8-7.8-11.2-10.5C76,74.4,70.6,72.6,64.9,72c-1.2-0.1-2.3-0.2-3.5-0.2L78.9,97z"/>
		</defs>
		<clipPath id="SVGID_00000077291998707077922070000017019839551089743286_">
			<use xlink:href="#SVGID_00000161607335279327672770000002701156614584017801_"  style="overflow:visible;"/>
		</clipPath>
		
			<linearGradient id="SVGID_00000151514524917183600730000012902263391880539541_" gradientUnits="userSpaceOnUse" x1="-1264.1288" y1="170.9698" x2="-1263.3319" y2="170.9698" gradientTransform="matrix(0 40 -40 0 6921.0312 50637)">
			<stop  offset="0" style="stop-color:#90D5E1"/>
			<stop  offset="1" style="stop-color:#EA4498"/>
		</linearGradient>
		
			<rect x="61.4" y="71.8" style="clip-path:url(#SVGID_00000077291998707077922070000017019839551089743286_);fill:url(#SVGID_00000151514524917183600730000012902263391880539541_);" width="41.8" height="31.9"/>
	</g>
</g>
<g>
	<g>
		<defs>
			<rect id="SVGID_00000054225302003434096630000016873975271447249540_" x="-361.6" y="-215" width="1115.5" height="557.8"/>
		</defs>
		<clipPath id="SVGID_00000025423781585741484840000002579002535366592128_">
			<use xlink:href="#SVGID_00000054225302003434096630000016873975271447249540_"  style="overflow:visible;"/>
		</clipPath>
		
			<line style="clip-path:url(#SVGID_00000025423781585741484840000002579002535366592128_);fill:none;stroke:#F6EB16;stroke-width:0.5;stroke-miterlimit:10;" x1="103.1" y1="103.7" x2="103.1" y2="103.7"/>
	</g>
	<g>
		<defs>
			<rect id="SVGID_00000037694206801879502270000009906923247322550438_" x="-361.6" y="-215" width="1115.5" height="557.8"/>
		</defs>
		<clipPath id="SVGID_00000158746144020933822710000011219419331486090370_">
			<use xlink:href="#SVGID_00000037694206801879502270000009906923247322550438_"  style="overflow:visible;"/>
		</clipPath>
		
			<line style="clip-path:url(#SVGID_00000158746144020933822710000011219419331486090370_);fill:none;stroke:#ED2224;stroke-width:0.5;stroke-miterlimit:10;" x1="103.1" y1="103.7" x2="103.1" y2="103.7"/>
	</g>
</g>
<g>
	<g>
		<defs>
			<path id="SVGID_00000136403636697668272000000012005216776785788313_" d="M33,24C33,32.9,40.1,40,48.9,40h24c4,0,7.4,3,7.9,6.9
				c0,0.3,0.1,0.7,0.1,1.1c0-0.6,0-1.2-0.1-1.8c-0.2-2.1-0.6-4.2-1.3-6.1c-2.4-6.8-7.8-12.2-14.6-14.6h0c0,0,0,0,0,0v0
				C62.4,24.5,59.7,24,57,24C57,24,33,24,33,24z"/>
		</defs>
		<clipPath id="SVGID_00000006695248230957771190000006762285244878160531_">
			<use xlink:href="#SVGID_00000136403636697668272000000012005216776785788313_"  style="overflow:visible;"/>
		</clipPath>
		
			<linearGradient id="SVGID_00000077301021310397376530000014175116894257129871_" gradientUnits="userSpaceOnUse" x1="-1262.4572" y1="199.0553" x2="-1261.6603" y2="199.0553" gradientTransform="matrix(60.088 0 0 60.088 75891.5234 -11924.8398)">
			<stop  offset="0" style="stop-color:#EA4498"/>
			<stop  offset="1" style="stop-color:#FAA31D"/>
		</linearGradient>
		
			<rect x="33" y="24" style="clip-path:url(#SVGID_00000006695248230957771190000006762285244878160531_);fill:url(#SVGID_00000077301021310397376530000014175116894257129871_);" width="47.9" height="23.9"/>
	</g>
</g>
<g>
	<g>
		<defs>
			<path id="SVGID_00000141449793251093737440000012365947363320439940_" d="M80.8,47.9L80.8,47.9L80.8,47.9z"/>
		</defs>
		<clipPath id="SVGID_00000176730938132858186980000015501558948790222505_">
			<use xlink:href="#SVGID_00000141449793251093737440000012365947363320439940_"  style="overflow:visible;"/>
		</clipPath>
		
			<linearGradient id="SVGID_00000037654089234045616400000016691470960112286904_" gradientUnits="userSpaceOnUse" x1="7832.8184" y1="5656.3252" x2="7833.6104" y2="5656.3252" gradientTransform="matrix(8.800000e-02 0 0 8.800000e-02 -608.4795 -449.8076)">
			<stop  offset="0" style="stop-color:#FFFFFF"/>
			<stop  offset="1" style="stop-color:#1D1D1B"/>
		</linearGradient>
		
			<path style="clip-path:url(#SVGID_00000176730938132858186980000015501558948790222505_);fill:url(#SVGID_00000037654089234045616400000016691470960112286904_);" d="
			M80.8,47.9L80.8,47.9L80.8,47.9z"/>
	</g>
</g>
<g>
	<g>
		<defs>
			<path id="SVGID_00000117643125576142735220000004017784707777961660_" d="M80.8,47.9L80.8,47.9L80.8,47.9z"/>
		</defs>
		<clipPath id="SVGID_00000046299748924553374870000007708553000822619781_">
			<use xlink:href="#SVGID_00000117643125576142735220000004017784707777961660_"  style="overflow:visible;"/>
		</clipPath>
		
			<linearGradient id="SVGID_00000180349935373542658370000011065061680289207713_" gradientUnits="userSpaceOnUse" x1="7832.8184" y1="5656.3252" x2="7833.6104" y2="5656.3252" gradientTransform="matrix(8.800000e-02 0 0 8.800000e-02 -608.4795 -449.8076)">
			<stop  offset="0" style="stop-color:#FFFFFF"/>
			<stop  offset="1" style="stop-color:#1D1D1B"/>
		</linearGradient>
		
			<path style="clip-path:url(#SVGID_00000046299748924553374870000007708553000822619781_);fill:url(#SVGID_00000180349935373542658370000011065061680289207713_);" d="
			M80.8,47.9L80.8,47.9L80.8,47.9z"/>
	</g>
</g>
<g>
	<g>
		<defs>
			<path id="SVGID_00000150819046432081730260000010160057805499194523_" d="M48.9,55.9C40.1,55.9,33,63,33,71.9v31.9
				c8.8,0,15.9-7.1,15.9-15.9V71.9c0-4.1,1.5-7.8,4-10.6c0.2-0.2,0.4-0.4,0.5-0.6c2.9-2.9,6.9-4.7,11.4-4.7H48.9z"/>
		</defs>
		<clipPath id="SVGID_00000023267768883255306500000004003235191383421118_">
			<use xlink:href="#SVGID_00000150819046432081730260000010160057805499194523_"  style="overflow:visible;"/>
		</clipPath>
		
			<linearGradient id="SVGID_00000113330184246699150290000014503227375524727175_" gradientUnits="userSpaceOnUse" x1="-1275.9629" y1="204.1503" x2="-1275.166" y2="204.1503" gradientTransform="matrix(35.9808 -62.3205 62.3205 35.9808 33222.0156 -86759.4844)">
			<stop  offset="0" style="stop-color:#6958A5"/>
			<stop  offset="1" style="stop-color:#8DD5E3"/>
		</linearGradient>
		
			<polygon style="clip-path:url(#SVGID_00000023267768883255306500000004003235191383421118_);fill:url(#SVGID_00000113330184246699150290000014503227375524727175_);" points="
			12.3,91.8 41,42.1 85.6,67.9 56.9,117.5 		"/>
	</g>
</g>
<g>
	<g>
		<defs>
			<rect id="SVGID_00000100374675673082454840000016086096684902226598_" x="-361.6" y="-215" width="1115.5" height="557.8"/>
		</defs>
		<clipPath id="SVGID_00000169527841067206112780000014528216024493218443_">
			<use xlink:href="#SVGID_00000100374675673082454840000016086096684902226598_"  style="overflow:visible;"/>
		</clipPath>
	</g>
	<g>
		<defs>
			<rect id="SVGID_00000081649747019629627610000016988683697949622169_" x="-361.6" y="-215" width="1115.5" height="557.8"/>
		</defs>
		<clipPath id="SVGID_00000023245925760894934460000012627181278602598796_">
			<use xlink:href="#SVGID_00000081649747019629627610000016988683697949622169_"  style="overflow:visible;"/>
		</clipPath>
		<path style="clip-path:url(#SVGID_00000023245925760894934460000012627181278602598796_);" d="M119.1,61.1v-21h9.1
			c0.9,0,1.8,0.2,2.6,0.6c0.8,0.4,1.5,0.9,2.1,1.6c0.6,0.7,1,1.4,1.4,2.2c0.3,0.8,0.5,1.6,0.5,2.5c0,0.9-0.2,1.8-0.5,2.7
			c-0.3,0.8-0.8,1.6-1.4,2.2c-0.6,0.6-1.3,1.1-2.2,1.3l4.9,8h-3.7l-4.6-7.3h-4.9v7.3C122.4,61.1,119.1,61.1,119.1,61.1z M122.4,50.9
			h5.8c0.6,0,1.2-0.2,1.6-0.5c0.5-0.4,0.8-0.8,1.1-1.4c0.3-0.6,0.4-1.2,0.4-2c0-0.7-0.2-1.4-0.5-2c-0.3-0.6-0.7-1.1-1.2-1.4
			c-0.5-0.3-1-0.5-1.6-0.5h-5.6L122.4,50.9L122.4,50.9z"/>
	</g>
	<g>
		<defs>
			<rect id="SVGID_00000059998689208635308440000003329425353970990978_" x="-361.6" y="-215" width="1115.5" height="557.8"/>
		</defs>
		<clipPath id="SVGID_00000003796139214750298270000011145991495372951473_">
			<use xlink:href="#SVGID_00000059998689208635308440000003329425353970990978_"  style="overflow:visible;"/>
		</clipPath>
		<polygon style="clip-path:url(#SVGID_00000003796139214750298270000011145991495372951473_);" points="156.9,58.2 156.9,61.1 
			142.5,61.1 142.5,40.1 156.7,40.1 156.7,43.1 145.9,43.1 145.9,49.1 155.3,49.1 155.3,51.8 145.9,51.8 145.9,58.2 		"/>
	</g>
	<g>
		<defs>
			<rect id="SVGID_00000163044912845965660940000003461956579157133991_" x="-361.6" y="-215" width="1115.5" height="557.8"/>
		</defs>
		<clipPath id="SVGID_00000155139720274929276470000004255023484434977415_">
			<use xlink:href="#SVGID_00000163044912845965660940000003461956579157133991_"  style="overflow:visible;"/>
		</clipPath>
		<polygon style="clip-path:url(#SVGID_00000155139720274929276470000004255023484434977415_);" points="167.6,46.3 167.6,61.1 
			164.3,61.1 164.3,40.1 167,40.1 178.9,55.3 178.9,40.2 182.2,40.2 182.2,61.1 179.3,61.1 		"/>
	</g>
	<g>
		<defs>
			<rect id="SVGID_00000035517162715685420810000006432619183773519242_" x="-361.6" y="-215" width="1115.5" height="557.8"/>
		</defs>
		<clipPath id="SVGID_00000016781043264707348100000006922327434922398623_">
			<use xlink:href="#SVGID_00000035517162715685420810000006432619183773519242_"  style="overflow:visible;"/>
		</clipPath>
		<path style="clip-path:url(#SVGID_00000016781043264707348100000006922327434922398623_);" d="M197,40.1h3.1l8.2,21h-3.5l-2.1-5.7
			h-8.4l-2.1,5.7h-3.5L197,40.1z M201.8,53l-3.3-9.2l-3.3,9.2H201.8z"/>
	</g>
	<g>
		<defs>
			<rect id="SVGID_00000017487384139498409070000006710552851091102365_" x="-361.6" y="-215" width="1115.5" height="557.8"/>
		</defs>
		<clipPath id="SVGID_00000119086944575152300590000003528831530805903515_">
			<use xlink:href="#SVGID_00000017487384139498409070000006710552851091102365_"  style="overflow:visible;"/>
		</clipPath>
		
			<rect x="214.8" y="40.1" style="clip-path:url(#SVGID_00000119086944575152300590000003528831530805903515_);" width="3.3" height="21"/>
	</g>
	<g>
		<defs>
			<rect id="SVGID_00000176034864005621439360000000500233731369848979_" x="-361.6" y="-215" width="1115.5" height="557.8"/>
		</defs>
		<clipPath id="SVGID_00000031928618739891505690000014753626838993229750_">
			<use xlink:href="#SVGID_00000176034864005621439360000000500233731369848979_"  style="overflow:visible;"/>
		</clipPath>
		<path style="clip-path:url(#SVGID_00000031928618739891505690000014753626838993229750_);" d="M239.2,45.1
			c-0.2-0.2-0.5-0.4-0.8-0.7s-0.8-0.5-1.3-0.7c-0.5-0.2-1.1-0.4-1.7-0.5c-0.6-0.1-1.2-0.2-1.9-0.2c-1.4,0-2.4,0.3-3.1,0.8
			c-0.7,0.5-1,1.2-1,2.1c0,0.7,0.2,1.2,0.6,1.6c0.4,0.4,1,0.7,1.7,1c0.8,0.2,1.7,0.5,2.9,0.8c1.4,0.3,2.7,0.7,3.7,1.2
			c1,0.5,1.8,1.1,2.4,1.9c0.6,0.8,0.8,1.8,0.8,3.1c0,1-0.2,1.9-0.6,2.7c-0.4,0.8-1,1.4-1.7,1.9s-1.5,0.8-2.5,1.1
			c-0.9,0.2-1.9,0.4-3,0.4c-1,0-2.1-0.1-3.1-0.3c-1-0.2-2-0.6-3-1c-0.9-0.4-1.8-0.9-2.6-1.6l1.5-2.8c0.2,0.3,0.6,0.5,1.1,0.8
			c0.5,0.3,1.1,0.6,1.7,0.9c0.6,0.3,1.3,0.5,2.1,0.7c0.8,0.2,1.5,0.3,2.3,0.3c1.3,0,2.3-0.2,3-0.7c0.7-0.5,1.1-1.1,1.1-2
			c0-0.7-0.2-1.2-0.7-1.7c-0.5-0.4-1.1-0.8-2-1.1s-1.9-0.6-3.1-0.9c-1.4-0.4-2.5-0.8-3.5-1.2c-0.9-0.5-1.6-1-2.1-1.7
			c-0.5-0.7-0.7-1.6-0.7-2.7c0-1.4,0.3-2.5,1-3.5c0.7-1,1.6-1.7,2.7-2.2c1.2-0.5,2.5-0.7,3.9-0.7c0.9,0,1.9,0.1,2.7,0.3
			s1.7,0.5,2.4,0.8c0.7,0.4,1.4,0.8,2,1.2L239.2,45.1z"/>
	</g>
	<g>
		<defs>
			<rect id="SVGID_00000047041771354490901590000013906328690479961762_" x="-361.6" y="-215" width="1115.5" height="557.8"/>
		</defs>
		<clipPath id="SVGID_00000138569975985191591020000017883361763477531563_">
			<use xlink:href="#SVGID_00000047041771354490901590000013906328690479961762_"  style="overflow:visible;"/>
		</clipPath>
		<path style="clip-path:url(#SVGID_00000138569975985191591020000017883361763477531563_);" d="M261.2,45.1
			c-0.2-0.2-0.5-0.4-0.8-0.7s-0.8-0.5-1.3-0.7s-1.1-0.4-1.7-0.5c-0.6-0.1-1.2-0.2-1.9-0.2c-1.4,0-2.4,0.3-3.1,0.8
			c-0.7,0.5-1,1.2-1,2.1c0,0.7,0.2,1.2,0.6,1.6c0.4,0.4,1,0.7,1.7,1c0.8,0.2,1.7,0.5,2.9,0.8c1.4,0.3,2.7,0.7,3.7,1.2
			c1,0.5,1.8,1.1,2.4,1.9c0.6,0.8,0.8,1.8,0.8,3.1c0,1-0.2,1.9-0.6,2.7c-0.4,0.8-1,1.4-1.7,1.9c-0.7,0.5-1.5,0.8-2.5,1.1
			c-0.9,0.2-1.9,0.4-3,0.4c-1,0-2.1-0.1-3.1-0.3c-1-0.2-2-0.6-3-1c-0.9-0.4-1.8-0.9-2.6-1.6l1.5-2.8c0.2,0.3,0.6,0.5,1.1,0.8
			c0.5,0.3,1.1,0.6,1.7,0.9c0.6,0.3,1.3,0.5,2.1,0.7c0.8,0.2,1.5,0.3,2.3,0.3c1.3,0,2.3-0.2,3-0.7c0.7-0.5,1-1.1,1-2
			c0-0.7-0.2-1.2-0.7-1.7c-0.5-0.4-1.1-0.8-2-1.1s-1.9-0.6-3.1-0.9c-1.4-0.4-2.5-0.8-3.5-1.2c-0.9-0.5-1.6-1-2.1-1.7
			c-0.5-0.7-0.7-1.6-0.7-2.7c0-1.4,0.3-2.5,1-3.5c0.7-1,1.6-1.7,2.7-2.2c1.2-0.5,2.5-0.7,3.9-0.7c0.9,0,1.9,0.1,2.7,0.3
			s1.7,0.5,2.4,0.8c0.7,0.4,1.4,0.8,2,1.2L261.2,45.1z"/>
	</g>
	<g>
		<defs>
			<rect id="SVGID_00000013897134634852378550000005311930661359975056_" x="-361.6" y="-215" width="1115.5" height="557.8"/>
		</defs>
		<clipPath id="SVGID_00000171710011229495808750000006947900202288186556_">
			<use xlink:href="#SVGID_00000013897134634852378550000005311930661359975056_"  style="overflow:visible;"/>
		</clipPath>
		<path style="clip-path:url(#SVGID_00000171710011229495808750000006947900202288186556_);" d="M276.3,40.1h3.1l8.2,21h-3.5
			l-2.1-5.7h-8.4l-2.1,5.7h-3.5L276.3,40.1z M281.2,53l-3.3-9.2l-3.3,9.2H281.2z"/>
	</g>
	<g>
		<defs>
			<rect id="SVGID_00000096750241921288266360000009421802117863806356_" x="-361.6" y="-215" width="1115.5" height="557.8"/>
		</defs>
		<clipPath id="SVGID_00000024695766304319664230000004228991566122004631_">
			<use xlink:href="#SVGID_00000096750241921288266360000009421802117863806356_"  style="overflow:visible;"/>
		</clipPath>
		<polygon style="clip-path:url(#SVGID_00000024695766304319664230000004228991566122004631_);" points="297.5,46.3 297.5,61.1 
			294.2,61.1 294.2,40.1 296.9,40.1 308.8,55.3 308.8,40.2 312.1,40.2 312.1,61.1 309.2,61.1 		"/>
	</g>
	<g>
		<defs>
			<rect id="SVGID_00000066508041725068397640000008480974892362959038_" x="-361.6" y="-215" width="1115.5" height="557.8"/>
		</defs>
		<clipPath id="SVGID_00000056417832818879775490000013095263176858270619_">
			<use xlink:href="#SVGID_00000066508041725068397640000008480974892362959038_"  style="overflow:visible;"/>
		</clipPath>
		<path style="clip-path:url(#SVGID_00000056417832818879775490000013095263176858270619_);" d="M319.4,50.5c0-1.3,0.2-2.5,0.7-3.8
			c0.5-1.2,1.1-2.4,2-3.4c0.9-1,1.9-1.8,3.2-2.4c1.3-0.6,2.7-0.9,4.3-0.9c1.9,0,3.6,0.4,4.9,1.3c1.4,0.9,2.4,2,3.1,3.3l-2.6,1.7
			c-0.4-0.8-0.9-1.5-1.5-2c-0.6-0.5-1.3-0.8-2-1c-0.7-0.2-1.4-0.3-2.1-0.3c-1.1,0-2,0.2-2.9,0.7c-0.8,0.4-1.5,1-2.1,1.8
			s-1,1.5-1.3,2.5c-0.3,0.9-0.4,1.8-0.4,2.7c0,1,0.2,2,0.5,2.9c0.3,0.9,0.8,1.8,1.4,2.5c0.6,0.7,1.3,1.3,2.1,1.7
			c0.8,0.4,1.7,0.6,2.7,0.6c0.7,0,1.4-0.1,2.1-0.4c0.7-0.2,1.4-0.6,2-1.1c0.6-0.5,1.1-1.2,1.5-2l2.8,1.5c-0.4,1-1.1,1.9-2,2.7
			c-0.9,0.7-2,1.3-3.1,1.7c-1.1,0.4-2.3,0.6-3.4,0.6c-1.4,0-2.8-0.3-4-0.9c-1.2-0.6-2.3-1.5-3.2-2.5c-0.9-1-1.6-2.2-2.1-3.5
			C319.7,53.1,319.4,51.8,319.4,50.5"/>
	</g>
	<g>
		<defs>
			<rect id="SVGID_00000004504530785779353640000012818324137446988175_" x="-361.6" y="-215" width="1115.5" height="557.8"/>
		</defs>
		<clipPath id="SVGID_00000036224742807309377760000009629505619948944773_">
			<use xlink:href="#SVGID_00000004504530785779353640000012818324137446988175_"  style="overflow:visible;"/>
		</clipPath>
		<polygon style="clip-path:url(#SVGID_00000036224742807309377760000009629505619948944773_);" points="359.3,58.2 359.3,61.1 
			344.9,61.1 344.9,40.1 359.1,40.1 359.1,43.1 348.3,43.1 348.3,49.1 357.6,49.1 357.6,51.8 348.3,51.8 348.3,58.2 		"/>
	</g>
	<g>
		<defs>
			<rect id="SVGID_00000170256100744560902240000009275858058929984164_" x="-361.6" y="-215" width="1115.5" height="557.8"/>
		</defs>
		<clipPath id="SVGID_00000021804547599477534000000011697384928971093658_">
			<use xlink:href="#SVGID_00000170256100744560902240000009275858058929984164_"  style="overflow:visible;"/>
		</clipPath>
		<polygon style="clip-path:url(#SVGID_00000021804547599477534000000011697384928971093658_);" points="119.1,87.6 119.1,68 
			132.1,68 132.1,70.7 122.2,70.7 122.2,76.6 130.5,76.6 130.5,79.2 122.2,79.2 122.2,87.6 		"/>
	</g>
	<g>
		<defs>
			<rect id="SVGID_00000012449058994144599460000008977021169619315840_" x="-361.6" y="-215" width="1115.5" height="557.8"/>
		</defs>
		<clipPath id="SVGID_00000039104234788510185930000016600944112790998698_">
			<use xlink:href="#SVGID_00000012449058994144599460000008977021169619315840_"  style="overflow:visible;"/>
		</clipPath>
		<polygon style="clip-path:url(#SVGID_00000039104234788510185930000016600944112790998698_);" points="138.7,87.6 138.7,68 
			141.9,68 141.9,84.9 152.4,84.9 152.4,87.6 		"/>
	</g>
	<g>
		<defs>
			<rect id="SVGID_00000178897378606342997130000013637939093937592195_" x="-361.6" y="-215" width="1115.5" height="557.8"/>
		</defs>
		<clipPath id="SVGID_00000047031387423383749630000012012827084458924419_">
			<use xlink:href="#SVGID_00000178897378606342997130000013637939093937592195_"  style="overflow:visible;"/>
		</clipPath>
		<path style="clip-path:url(#SVGID_00000047031387423383749630000012012827084458924419_);" d="M164.2,68h2.9l7.6,19.6h-3.3
			l-1.9-5.3h-7.9l-1.9,5.3h-3.3L164.2,68z M168.8,80l-3.1-8.6l-3.1,8.6C162.6,80,168.8,80,168.8,80z"/>
	</g>
	<g>
		<defs>
			<rect id="SVGID_00000150788982953802799180000015252871155704522674_" x="-361.6" y="-215" width="1115.5" height="557.8"/>
		</defs>
		<clipPath id="SVGID_00000062901762873953446790000013244208852821361540_">
			<use xlink:href="#SVGID_00000150788982953802799180000015252871155704522674_"  style="overflow:visible;"/>
		</clipPath>
		<polygon style="clip-path:url(#SVGID_00000062901762873953446790000013244208852821361540_);" points="180.5,68 186.5,83.9 
			192.4,68 195.6,68 187.9,87.6 185,87.6 177.2,68 		"/>
	</g>
	<g>
		<defs>
			<rect id="SVGID_00000120521752360135590400000017283819933455400076_" x="-361.6" y="-215" width="1115.5" height="557.8"/>
		</defs>
		<clipPath id="SVGID_00000114779400288189760230000015826576602056212910_">
			<use xlink:href="#SVGID_00000120521752360135590400000017283819933455400076_"  style="overflow:visible;"/>
		</clipPath>
		<path style="clip-path:url(#SVGID_00000114779400288189760230000015826576602056212910_);" d="M209.1,87.8c-1.4,0-2.6-0.3-3.8-0.8
			c-1.1-0.6-2.1-1.3-3-2.3c-0.8-0.9-1.5-2-1.9-3.2c-0.5-1.2-0.7-2.4-0.7-3.7c0-1.3,0.2-2.6,0.7-3.8c0.5-1.2,1.1-2.2,2-3.2
			c0.9-0.9,1.9-1.7,3-2.2c1.1-0.5,2.4-0.8,3.7-0.8c1.4,0,2.7,0.3,3.8,0.9c1.1,0.6,2.1,1.3,2.9,2.3c0.8,1,1.5,2,1.9,3.2
			s0.7,2.4,0.7,3.7c0,1.3-0.2,2.5-0.7,3.7c-0.5,1.2-1.1,2.2-2,3.2c-0.9,0.9-1.9,1.7-3,2.2C211.7,87.5,210.4,87.8,209.1,87.8
			 M202.9,77.8c0,0.9,0.1,1.8,0.4,2.7c0.3,0.9,0.7,1.6,1.2,2.3c0.5,0.7,1.2,1.2,2,1.6c0.8,0.4,1.6,0.6,2.6,0.6c1,0,1.9-0.2,2.7-0.6
			c0.8-0.4,1.4-1,2-1.6s0.9-1.5,1.2-2.3c0.3-0.8,0.4-1.7,0.4-2.6c0-0.9-0.1-1.8-0.4-2.7c-0.3-0.8-0.7-1.6-1.3-2.3s-1.2-1.2-2-1.6
			c-0.8-0.4-1.6-0.6-2.6-0.6c-1,0-1.9,0.2-2.7,0.6c-0.8,0.4-1.4,0.9-1.9,1.6c-0.5,0.7-0.9,1.4-1.2,2.3
			C203,76.1,202.9,76.9,202.9,77.8"/>
	</g>
	<g>
		<defs>
			<rect id="SVGID_00000118369152987880729910000003917314543362462098_" x="-361.6" y="-215" width="1115.5" height="557.8"/>
		</defs>
		<clipPath id="SVGID_00000131368750812367730900000014637842757208759474_">
			<use xlink:href="#SVGID_00000118369152987880729910000003917314543362462098_"  style="overflow:visible;"/>
		</clipPath>
		<path style="clip-path:url(#SVGID_00000131368750812367730900000014637842757208759474_);" d="M225.4,87.6V68h8.6
			c0.9,0,1.7,0.2,2.4,0.6c0.7,0.4,1.4,0.9,1.9,1.5c0.5,0.6,1,1.3,1.3,2.1c0.3,0.8,0.5,1.5,0.5,2.3c0,0.9-0.2,1.7-0.5,2.5
			c-0.3,0.8-0.8,1.5-1.3,2c-0.6,0.6-1.3,1-2,1.2l4.6,7.5h-3.5l-4.3-6.8h-4.5v6.8L225.4,87.6L225.4,87.6z M228.5,78.1h5.4
			c0.6,0,1.1-0.2,1.5-0.5c0.4-0.3,0.8-0.8,1.1-1.3c0.3-0.6,0.4-1.2,0.4-1.8c0-0.7-0.2-1.3-0.5-1.9c-0.3-0.6-0.7-1-1.1-1.3
			c-0.5-0.3-1-0.5-1.5-0.5h-5.2L228.5,78.1L228.5,78.1z"/>
	</g>
	<g>
		<defs>
			<rect id="SVGID_00000020369463728656297070000017383480902230011061_" x="-361.6" y="-215" width="1115.5" height="557.8"/>
		</defs>
		<clipPath id="SVGID_00000129894879735788217640000003171357022947476391_">
			<use xlink:href="#SVGID_00000020369463728656297070000017383480902230011061_"  style="overflow:visible;"/>
		</clipPath>
		<path style="clip-path:url(#SVGID_00000129894879735788217640000003171357022947476391_);" d="M258.9,72.6
			c-0.2-0.2-0.4-0.4-0.8-0.6c-0.4-0.2-0.8-0.4-1.2-0.6c-0.5-0.2-1-0.4-1.5-0.5s-1.1-0.2-1.7-0.2c-1.3,0-2.2,0.2-2.9,0.7
			c-0.6,0.5-0.9,1.1-0.9,2c0,0.6,0.2,1.1,0.5,1.5c0.4,0.4,0.9,0.7,1.6,0.9c0.7,0.2,1.6,0.5,2.7,0.7c1.3,0.3,2.5,0.7,3.5,1.1
			c1,0.4,1.7,1,2.2,1.7c0.5,0.7,0.8,1.7,0.8,2.9c0,1-0.2,1.8-0.6,2.5s-0.9,1.3-1.6,1.7c-0.7,0.4-1.4,0.8-2.3,1
			c-0.9,0.2-1.8,0.3-2.8,0.3c-1,0-1.9-0.1-2.9-0.3c-1-0.2-1.9-0.5-2.8-0.9c-0.9-0.4-1.7-0.9-2.4-1.5l1.4-2.7c0.2,0.2,0.6,0.5,1,0.8
			s1,0.6,1.6,0.8c0.6,0.3,1.3,0.5,2,0.7c0.7,0.2,1.4,0.3,2.2,0.3c1.2,0,2.2-0.2,2.8-0.6c0.7-0.4,1-1.1,1-1.9c0-0.6-0.2-1.2-0.6-1.6
			c-0.4-0.4-1.1-0.7-1.9-1c-0.8-0.3-1.8-0.6-2.9-0.8c-1.3-0.3-2.4-0.7-3.2-1.1c-0.9-0.4-1.5-1-1.9-1.6c-0.4-0.6-0.6-1.5-0.6-2.5
			c0-1.3,0.3-2.4,0.9-3.3c0.6-0.9,1.5-1.6,2.6-2c1.1-0.4,2.3-0.7,3.6-0.7c0.9,0,1.7,0.1,2.5,0.3c0.8,0.2,1.5,0.5,2.2,0.8
			c0.7,0.3,1.3,0.7,1.8,1.1L258.9,72.6z"/>
	</g>
</g>
</svg>
