<?xml version="1.0" encoding="utf-8"?>
<!-- Generator: Adobe Illustrator 26.0.0, SVG Export Plug-In . SVG Version: 6.00 Build 0)  -->
<svg version="1.1" id="Layer_1" xmlns="http://www.w3.org/2000/svg" xmlns:xlink="http://www.w3.org/1999/xlink" x="0px" y="0px"
	 viewBox="0 0 383 127" style="enable-background:new 0 0 383 127;" xml:space="preserve">
<style type="text/css">
	
		.st0{clip-path:url(#SVGID_00000005970154802548438190000017119298782548275096_);fill:url(#SVGID_00000027578926540721736080000005819507009831398022_);}
	
		.st1{clip-path:url(#SVGID_00000129169071729661276880000009620748090018291380_);fill:url(#SVGID_00000088096391562410593250000018047801226401012619_);}
	.st2{clip-path:url(#SVGID_00000129902791311642789160000002472508708700317092_);fill:none;}
	
		.st3{clip-path:url(#SVGID_00000138540872690046766600000015193131904175265688_);fill:url(#SVGID_00000150097011586223782310000011369534422747888309_);}
	
		.st4{clip-path:url(#SVGID_00000034780399347083192570000010493436631216378788_);fill:url(#SVGID_00000080167128446955400180000017781242718020171923_);}
	
		.st5{clip-path:url(#SVGID_00000086685555978032574910000017846013144036563857_);fill:url(#SVGID_00000018201665412584898760000016717909899454590896_);}
	
		.st6{clip-path:url(#SVGID_00000173150782942604169290000012967883037648939403_);fill:url(#SVGID_00000058582622602575341300000018324377567471010184_);}
	
		.st7{clip-path:url(#SVGID_00000088118496502893614730000018264461992239297684_);fill:none;stroke:#F6EB16;stroke-width:0.5;stroke-miterlimit:10;}
	
		.st8{clip-path:url(#SVGID_00000127037014832710636440000007908518805068997298_);fill:none;stroke:#ED2224;stroke-width:0.5;stroke-miterlimit:10;}
	
		.st9{clip-path:url(#SVGID_00000148618949582696852090000017255848687420594076_);fill:url(#SVGID_00000016768055288972020270000013060653105341731976_);}
	
		.st10{clip-path:url(#SVGID_00000170967797745573334850000001846316804092902811_);fill:url(#SVGID_00000127024461130282134120000004371214905184664478_);}
	
		.st11{clip-path:url(#SVGID_00000161616172085569041880000014044104003423141298_);fill:url(#SVGID_00000099647291580914587040000002017063995929985699_);}
	
		.st12{clip-path:url(#SVGID_00000026128949028705554680000003508864508581659296_);fill:url(#SVGID_00000090266795546866470060000013886152998646012844_);}
	.st13{clip-path:url(#SVGID_00000129897271996061699850000000951210541462774155_);fill:#FFFFFF;}
	.st14{clip-path:url(#SVGID_00000139294777253044460610000004285242915861174665_);fill:#FFFFFF;}
	.st15{clip-path:url(#SVGID_00000029726262894243671640000017387025840555656094_);fill:#FFFFFF;}
	.st16{clip-path:url(#SVGID_00000058575511535186586770000001060330906080787856_);fill:#FFFFFF;}
	.st17{clip-path:url(#SVGID_00000034796427191693236050000018020055047092024234_);fill:#FFFFFF;}
	.st18{clip-path:url(#SVGID_00000152258539836752668560000017662278549890388106_);fill:#FFFFFF;}
	.st19{clip-path:url(#SVGID_00000164474063182142504680000003137730372603925179_);fill:#FFFFFF;}
	.st20{clip-path:url(#SVGID_00000106115973855928023410000013088568895869117110_);fill:#FFFFFF;}
	.st21{clip-path:url(#SVGID_00000168079839729783527050000011630471057181703359_);fill:#FFFFFF;}
	.st22{clip-path:url(#SVGID_00000038376115251413722090000011237446365453542833_);fill:#FFFFFF;}
	.st23{clip-path:url(#SVGID_00000061464173127100796790000001031636466959900060_);fill:#FFFFFF;}
	.st24{clip-path:url(#SVGID_00000079443824951640999820000014598447862049209493_);fill:#FFFFFF;}
	.st25{clip-path:url(#SVGID_00000053519033623737091870000006208407929723932597_);fill:#FFFFFF;}
	.st26{clip-path:url(#SVGID_00000000184551268777815990000002884804720158878389_);fill:#FFFFFF;}
	.st27{clip-path:url(#SVGID_00000141453483011905831890000012770970113138910628_);fill:#FFFFFF;}
	.st28{clip-path:url(#SVGID_00000141429636750203877950000010870476225608299171_);fill:#FFFFFF;}
	.st29{clip-path:url(#SVGID_00000142172923858647489800000015486564016303547065_);fill:#FFFFFF;}
	.st30{clip-path:url(#SVGID_00000018947943971186884060000009385837779720488590_);fill:#FFFFFF;}
</style>
<g>
	<g>
		<g>
			<defs>
				<path id="SVGID_1_" d="M72.8,71.8H61.4c1.2,0,2.4,0.1,3.5,0.2c5.7,0.5,11.1,2.4,15.9,5.3C85.1,80,89,83.5,92,87.8l-11.2-16
					l-0.8-1C77.8,71.5,75.3,71.8,72.8,71.8"/>
			</defs>
			<clipPath id="SVGID_00000077322706468372442870000009156755348563405715_">
				<use xlink:href="#SVGID_1_"  style="overflow:visible;"/>
			</clipPath>
			
				<linearGradient id="SVGID_00000126317890892962037800000008459673413735117726_" gradientUnits="userSpaceOnUse" x1="-2003.0168" y1="388.2999" x2="-2002.2205" y2="388.2999" gradientTransform="matrix(38.42 0 0 -38.42 77017.3047 14997.7812)">
				<stop  offset="0" style="stop-color:#6BC9C9"/>
				<stop  offset="1" style="stop-color:#75D1F7"/>
			</linearGradient>
			
				<rect x="61.4" y="70.8" style="clip-path:url(#SVGID_00000077322706468372442870000009156755348563405715_);fill:url(#SVGID_00000126317890892962037800000008459673413735117726_);" width="30.6" height="17"/>
		</g>
	</g>
</g>
<g>
	<g>
		<g>
			<defs>
				<path id="SVGID_00000047755498091390652380000015367614658110799241_" d="M103.1,103.7L103.1,103.7L103.1,103.7z"/>
			</defs>
			<clipPath id="SVGID_00000174601280884691105840000006297561382020644527_">
				<use xlink:href="#SVGID_00000047755498091390652380000015367614658110799241_"  style="overflow:visible;"/>
			</clipPath>
			
				<linearGradient id="SVGID_00000008147092339846828890000000471317389033992360_" gradientUnits="userSpaceOnUse" x1="103.1" y1="103.7" x2="103.1" y2="103.7" gradientTransform="matrix(8.000000e-03 0 0 -8.000000e-03 -1444.4155 -835.6959)">
				<stop  offset="0" style="stop-color:#6BC9C9"/>
				<stop  offset="1" style="stop-color:#75D1F7"/>
			</linearGradient>
			
				<path style="clip-path:url(#SVGID_00000174601280884691105840000006297561382020644527_);fill:url(#SVGID_00000008147092339846828890000000471317389033992360_);" d="
				M103.1,103.7L103.1,103.7L103.1,103.7z"/>
		</g>
	</g>
</g>
<g>
	<g>
		<g>
			<defs>
				<rect id="SVGID_00000080168794112514247910000004076383597930343814_" x="-361.6" y="-215" width="1115.5" height="557.8"/>
			</defs>
			<clipPath id="SVGID_00000030457758409372675930000003798238468268800139_">
				<use xlink:href="#SVGID_00000080168794112514247910000004076383597930343814_"  style="overflow:visible;"/>
			</clipPath>
			
				<line style="clip-path:url(#SVGID_00000030457758409372675930000003798238468268800139_);fill:none;" x1="95.4" y1="40" x2="95.4" y2="40"/>
		</g>
	</g>
</g>
<g>
	<g>
		<g>
			<defs>
				<path id="SVGID_00000042701740049149278430000010217046050357183630_" d="M80.8,47.9L80.8,47.9L80.8,47.9z"/>
			</defs>
			<clipPath id="SVGID_00000132786388551090061170000009281132546216341663_">
				<use xlink:href="#SVGID_00000042701740049149278430000010217046050357183630_"  style="overflow:visible;"/>
			</clipPath>
			
				<linearGradient id="SVGID_00000155147904676058035910000004385118442533073583_" gradientUnits="userSpaceOnUse" x1="15791.9941" y1="-10460.8594" x2="15791.9941" y2="-10460.8594" gradientTransform="matrix(8.800000e-02 0 0 -8.800000e-02 -1308.8955 -872.6556)">
				<stop  offset="0" style="stop-color:#FFFFFF"/>
				<stop  offset="1" style="stop-color:#1D1D1B"/>
			</linearGradient>
			
				<path style="clip-path:url(#SVGID_00000132786388551090061170000009281132546216341663_);fill:url(#SVGID_00000155147904676058035910000004385118442533073583_);" d="
				M80.8,47.9L80.8,47.9L80.8,47.9z"/>
		</g>
	</g>
</g>
<g>
	<g>
		<g>
			<defs>
				<path id="SVGID_00000157994920079434680950000015877075752460255113_" d="M57,24c2.8,0,5.4,0.5,7.9,1.3l0,0l0,0
					c6.8,2.4,12.2,7.8,14.6,14.6c0.7,1.9,1.1,4,1.3,6.1c0,0.6,0.1,1.2,0.1,1.8c0,0.4,0,0.7-0.1,1.1c-0.5,3.8-3.7,6.7-7.5,6.9
					c2.6,0,5.2-0.5,7.5-1.3c3.8-1.3,7.2-3.7,9.9-6.6c2-2.3,3.6-5,4.7-7.9l0,0c-2.4-6.8-7.8-12.2-14.6-14.6c-2.5-0.9-5.2-1.4-8-1.4
					H57z"/>
			</defs>
			<clipPath id="SVGID_00000073708202239933643390000017764793667275594421_">
				<use xlink:href="#SVGID_00000157994920079434680950000015877075752460255113_"  style="overflow:visible;"/>
			</clipPath>
			
				<linearGradient id="SVGID_00000152957172431382001210000012247659839962452619_" gradientUnits="userSpaceOnUse" x1="-2008.9373" y1="421.4182" x2="-2008.1405" y2="421.4182" gradientTransform="matrix(36.2019 36.2019 36.2019 -36.2019 57529.8086 88005.8828)">
				<stop  offset="0" style="stop-color:#F79658"/>
				<stop  offset="1" style="stop-color:#FFE508"/>
			</linearGradient>
			
				<polygon style="clip-path:url(#SVGID_00000073708202239933643390000017764793667275594421_);fill:url(#SVGID_00000152957172431382001210000012247659839962452619_);" points="
				76.2,4.8 111.3,40 76.2,75.1 41,40 			"/>
		</g>
	</g>
</g>
<g>
	<g>
		<g>
			<defs>
				<path id="SVGID_00000052099437764573497450000010618790146236641675_" d="M90.7,47.9c-2.7,3-6.1,5.3-9.9,6.6
					c-2.4,0.8-4.9,1.3-7.5,1.3h-8.4c-4.4,0-8.5,1.8-11.4,4.7c-0.2,0.2-0.4,0.4-0.5,0.6c-2.5,2.8-4,6.5-4,10.6h23.9
					c2.5,0,4.9-0.4,7.2-1.1c0.3-0.1,0.5-0.2,0.8-0.3c6.8-2.4,12.2-7.8,14.6-14.6c0.9-2.5,1.4-5.2,1.4-8s-0.5-5.5-1.4-7.9
					C94.4,43,92.7,45.7,90.7,47.9"/>
			</defs>
			<clipPath id="SVGID_00000172436942986199541840000007725046427924343980_">
				<use xlink:href="#SVGID_00000052099437764573497450000010618790146236641675_"  style="overflow:visible;"/>
			</clipPath>
			
				<linearGradient id="SVGID_00000164494649436689962230000016494908101330067643_" gradientUnits="userSpaceOnUse" x1="-2037.6201" y1="387.3564" x2="-2036.8235" y2="387.3564" gradientTransform="matrix(49.125 -49.125 -49.125 -49.125 119179.8906 -80993.375)">
				<stop  offset="0" style="stop-color:#69CCE3"/>
				<stop  offset="1" style="stop-color:#F7EC2E"/>
			</linearGradient>
			
				<polygon style="clip-path:url(#SVGID_00000172436942986199541840000007725046427924343980_);fill:url(#SVGID_00000164494649436689962230000016494908101330067643_);" points="
				33,55.9 72.8,16.1 112.7,55.9 72.8,95.8 			"/>
		</g>
	</g>
</g>
<g>
	<g>
		<g>
			<defs>
				<path id="SVGID_00000168815362884709985500000011974105504570833326_" d="M78.9,97c3,4.2,7.8,6.8,13,6.8h11.2l-6.4-9.1L92,87.8
					c-3-4.3-6.8-7.8-11.2-10.5C76,74.4,70.6,72.6,64.9,72c-1.2-0.1-2.3-0.2-3.5-0.2L78.9,97z"/>
			</defs>
			<clipPath id="SVGID_00000098900586936901508110000003814515322526822281_">
				<use xlink:href="#SVGID_00000168815362884709985500000011974105504570833326_"  style="overflow:visible;"/>
			</clipPath>
			
				<linearGradient id="SVGID_00000004531823712382815540000011002808434371006908_" gradientUnits="userSpaceOnUse" x1="-2020.2288" y1="452.2317" x2="-2019.4313" y2="452.2317" gradientTransform="matrix(0 40 40 0 -18006.9688 80881)">
				<stop  offset="0" style="stop-color:#90D5E1"/>
				<stop  offset="1" style="stop-color:#EA4498"/>
			</linearGradient>
			
				<rect x="61.4" y="71.8" style="clip-path:url(#SVGID_00000098900586936901508110000003814515322526822281_);fill:url(#SVGID_00000004531823712382815540000011002808434371006908_);" width="41.8" height="31.9"/>
		</g>
	</g>
</g>
<g>
	<g>
		<g>
			<defs>
				<rect id="SVGID_00000000913296025278433400000015552548003714193825_" x="-361.6" y="-215" width="1115.5" height="557.8"/>
			</defs>
			<clipPath id="SVGID_00000138562777075255973460000000048443717272005277_">
				<use xlink:href="#SVGID_00000000913296025278433400000015552548003714193825_"  style="overflow:visible;"/>
			</clipPath>
			
				<line style="clip-path:url(#SVGID_00000138562777075255973460000000048443717272005277_);fill:none;stroke:#F6EB16;stroke-width:0.5;stroke-miterlimit:10;" x1="103.1" y1="103.7" x2="103.1" y2="103.7"/>
		</g>
	</g>
	<g>
		<g>
			<defs>
				<rect id="SVGID_00000070110127072177055620000000789767791870187150_" x="-361.6" y="-215" width="1115.5" height="557.8"/>
			</defs>
			<clipPath id="SVGID_00000042737110710641810990000003106067231520075397_">
				<use xlink:href="#SVGID_00000070110127072177055620000000789767791870187150_"  style="overflow:visible;"/>
			</clipPath>
			
				<line style="clip-path:url(#SVGID_00000042737110710641810990000003106067231520075397_);fill:none;stroke:#ED2224;stroke-width:0.5;stroke-miterlimit:10;" x1="103.1" y1="103.7" x2="103.1" y2="103.7"/>
		</g>
	</g>
</g>
<g>
	<g>
		<g>
			<defs>
				<path id="SVGID_00000179617589243178063040000012966411692389881505_" d="M33,24c0,8.9,7.1,16,15.9,16h24c4,0,7.4,3,7.9,6.9
					c0,0.3,0.1,0.7,0.1,1.1c0-0.6,0-1.2-0.1-1.8c-0.2-2.1-0.6-4.2-1.3-6.1c-2.4-6.8-7.8-12.2-14.6-14.6l0,0l0,0l0,0
					c-2.5-1-5.2-1.5-7.9-1.5H33z"/>
			</defs>
			<clipPath id="SVGID_00000183966325932818922390000016123152467995003522_">
				<use xlink:href="#SVGID_00000179617589243178063040000012966411692389881505_"  style="overflow:visible;"/>
			</clipPath>
			
				<linearGradient id="SVGID_00000008840852208748774110000016979775068737492373_" gradientUnits="userSpaceOnUse" x1="-2017.6758" y1="397.0237" x2="-2016.8787" y2="397.0237" gradientTransform="matrix(60.088 0 0 -60.088 121271.1094 23892.3125)">
				<stop  offset="0" style="stop-color:#EA4498"/>
				<stop  offset="1" style="stop-color:#FAA31D"/>
			</linearGradient>
			
				<rect x="33" y="24" style="clip-path:url(#SVGID_00000183966325932818922390000016123152467995003522_);fill:url(#SVGID_00000008840852208748774110000016979775068737492373_);" width="47.9" height="23.9"/>
		</g>
	</g>
</g>
<g>
	<g>
		<g>
			<defs>
				<path id="SVGID_00000144332202821290567080000010573549109410613671_" d="M80.8,47.9L80.8,47.9L80.8,47.9z"/>
			</defs>
			<clipPath id="SVGID_00000039134508814692999740000010306738644066210974_">
				<use xlink:href="#SVGID_00000144332202821290567080000010573549109410613671_"  style="overflow:visible;"/>
			</clipPath>
			
				<linearGradient id="SVGID_00000065066010977498753350000017666731586586006963_" gradientUnits="userSpaceOnUse" x1="15791.9941" y1="-10460.8594" x2="15791.9941" y2="-10460.8594" gradientTransform="matrix(8.800000e-02 0 0 -8.800000e-02 -1308.8955 -872.6556)">
				<stop  offset="0" style="stop-color:#FFFFFF"/>
				<stop  offset="1" style="stop-color:#1D1D1B"/>
			</linearGradient>
			
				<path style="clip-path:url(#SVGID_00000039134508814692999740000010306738644066210974_);fill:url(#SVGID_00000065066010977498753350000017666731586586006963_);" d="
				M80.8,47.9L80.8,47.9L80.8,47.9z"/>
		</g>
	</g>
</g>
<g>
	<g>
		<g>
			<defs>
				<path id="SVGID_00000101800481787329728310000018073495539534992553_" d="M80.8,47.9L80.8,47.9L80.8,47.9z"/>
			</defs>
			<clipPath id="SVGID_00000048485387279130378360000009100232239762140291_">
				<use xlink:href="#SVGID_00000101800481787329728310000018073495539534992553_"  style="overflow:visible;"/>
			</clipPath>
			
				<linearGradient id="SVGID_00000063591083202987539500000017472734990382991771_" gradientUnits="userSpaceOnUse" x1="15791.9941" y1="-10460.8594" x2="15791.9941" y2="-10460.8594" gradientTransform="matrix(8.800000e-02 0 0 -8.800000e-02 -1308.8955 -872.6556)">
				<stop  offset="0" style="stop-color:#FFFFFF"/>
				<stop  offset="1" style="stop-color:#1D1D1B"/>
			</linearGradient>
			
				<path style="clip-path:url(#SVGID_00000048485387279130378360000009100232239762140291_);fill:url(#SVGID_00000063591083202987539500000017472734990382991771_);" d="
				M80.8,47.9L80.8,47.9L80.8,47.9z"/>
		</g>
	</g>
</g>
<g>
	<g>
		<g>
			<defs>
				<path id="SVGID_00000136403614172271962510000009098555930791545243_" d="M48.9,55.9c-8.8,0-15.9,7.1-15.9,16v31.9
					c8.8,0,15.9-7.1,15.9-15.9v-16c0-4.1,1.5-7.8,4-10.6c0.2-0.2,0.4-0.4,0.5-0.6c2.9-2.9,6.9-4.7,11.4-4.7H48.9V55.9z"/>
			</defs>
			<clipPath id="SVGID_00000168111190747507881260000004794770435280808093_">
				<use xlink:href="#SVGID_00000136403614172271962510000009098555930791545243_"  style="overflow:visible;"/>
			</clipPath>
			
				<linearGradient id="SVGID_00000136386573164803708500000011299366389389200044_" gradientUnits="userSpaceOnUse" x1="-2044.3555" y1="387.2994" x2="-2043.5579" y2="387.2994" gradientTransform="matrix(35.9808 -62.3205 -62.3205 -35.9808 97728.8516 -113365.2266)">
				<stop  offset="0" style="stop-color:#6958A5"/>
				<stop  offset="1" style="stop-color:#8DD5E3"/>
			</linearGradient>
			
				<polygon style="clip-path:url(#SVGID_00000168111190747507881260000004794770435280808093_);fill:url(#SVGID_00000136386573164803708500000011299366389389200044_);" points="
				12.3,91.8 41,42.1 85.6,67.9 56.9,117.5 			"/>
		</g>
	</g>
</g>
<g>
	<g>
		<g>
			<defs>
				<rect id="SVGID_00000092442150560944893640000000568059503744034180_" x="-361.6" y="-215" width="1115.5" height="557.8"/>
			</defs>
			<clipPath id="SVGID_00000020386358218549675390000005258351606274643872_">
				<use xlink:href="#SVGID_00000092442150560944893640000000568059503744034180_"  style="overflow:visible;"/>
			</clipPath>
			<path style="clip-path:url(#SVGID_00000020386358218549675390000005258351606274643872_);fill:#FFFFFF;" d="M119.1,61.1v-21h9.1
				c0.9,0,1.8,0.2,2.6,0.6c0.8,0.4,1.5,0.9,2.1,1.6c0.6,0.7,1,1.4,1.4,2.2c0.3,0.8,0.5,1.6,0.5,2.5s-0.2,1.8-0.5,2.7
				c-0.3,0.8-0.8,1.6-1.4,2.2c-0.6,0.6-1.3,1.1-2.2,1.3l4.9,8h-3.7l-4.6-7.3h-4.9v7.3C122.4,61.1,119.1,61.1,119.1,61.1z
				 M122.4,50.9h5.8c0.6,0,1.2-0.2,1.6-0.5c0.5-0.4,0.8-0.8,1.1-1.4c0.3-0.6,0.4-1.2,0.4-2c0-0.7-0.2-1.4-0.5-2s-0.7-1.1-1.2-1.4
				c-0.5-0.3-1-0.5-1.6-0.5h-5.6V50.9L122.4,50.9z"/>
		</g>
	</g>
	<g>
		<g>
			<defs>
				<rect id="SVGID_00000040575230508820120670000016461209983650914709_" x="-361.6" y="-215" width="1115.5" height="557.8"/>
			</defs>
			<clipPath id="SVGID_00000093144610130501979210000004110476767453090485_">
				<use xlink:href="#SVGID_00000040575230508820120670000016461209983650914709_"  style="overflow:visible;"/>
			</clipPath>
			<polygon style="clip-path:url(#SVGID_00000093144610130501979210000004110476767453090485_);fill:#FFFFFF;" points="156.9,58.2 
				156.9,61.1 142.5,61.1 142.5,40.1 156.7,40.1 156.7,43.1 145.9,43.1 145.9,49.1 155.3,49.1 155.3,51.8 145.9,51.8 145.9,58.2 			
				"/>
		</g>
	</g>
	<g>
		<g>
			<defs>
				<rect id="SVGID_00000127043090629972342290000017454082974677132200_" x="-361.6" y="-215" width="1115.5" height="557.8"/>
			</defs>
			<clipPath id="SVGID_00000128485543104637066310000007049126436845056645_">
				<use xlink:href="#SVGID_00000127043090629972342290000017454082974677132200_"  style="overflow:visible;"/>
			</clipPath>
			<polygon style="clip-path:url(#SVGID_00000128485543104637066310000007049126436845056645_);fill:#FFFFFF;" points="167.6,46.3 
				167.6,61.1 164.3,61.1 164.3,40.1 167,40.1 178.9,55.3 178.9,40.2 182.2,40.2 182.2,61.1 179.3,61.1 			"/>
		</g>
	</g>
	<g>
		<g>
			<defs>
				<rect id="SVGID_00000019663406329617842200000003155934835829237429_" x="-361.6" y="-215" width="1115.5" height="557.8"/>
			</defs>
			<clipPath id="SVGID_00000174599423414539094400000017516620460021423765_">
				<use xlink:href="#SVGID_00000019663406329617842200000003155934835829237429_"  style="overflow:visible;"/>
			</clipPath>
			<path style="clip-path:url(#SVGID_00000174599423414539094400000017516620460021423765_);fill:#FFFFFF;" d="M197,40.1h3.1l8.2,21
				h-3.5l-2.1-5.7h-8.4l-2.1,5.7h-3.5L197,40.1z M201.8,53l-3.3-9.2l-3.3,9.2H201.8z"/>
		</g>
	</g>
	<g>
		<g>
			<defs>
				<rect id="SVGID_00000029014009257652363370000003956328956013382839_" x="-361.6" y="-215" width="1115.5" height="557.8"/>
			</defs>
			<clipPath id="SVGID_00000168112991959275579190000005616018902031892415_">
				<use xlink:href="#SVGID_00000029014009257652363370000003956328956013382839_"  style="overflow:visible;"/>
			</clipPath>
			
				<rect x="214.8" y="40.1" style="clip-path:url(#SVGID_00000168112991959275579190000005616018902031892415_);fill:#FFFFFF;" width="3.3" height="21"/>
		</g>
	</g>
	<g>
		<g>
			<defs>
				<rect id="SVGID_00000156584244190754895570000001007185022023005866_" x="-361.6" y="-215" width="1115.5" height="557.8"/>
			</defs>
			<clipPath id="SVGID_00000080902699910527551310000013276963501217194121_">
				<use xlink:href="#SVGID_00000156584244190754895570000001007185022023005866_"  style="overflow:visible;"/>
			</clipPath>
			<path style="clip-path:url(#SVGID_00000080902699910527551310000013276963501217194121_);fill:#FFFFFF;" d="M239.2,45.1
				c-0.2-0.2-0.5-0.4-0.8-0.7s-0.8-0.5-1.3-0.7s-1.1-0.4-1.7-0.5c-0.6-0.1-1.2-0.2-1.9-0.2c-1.4,0-2.4,0.3-3.1,0.8
				c-0.7,0.5-1,1.2-1,2.1c0,0.7,0.2,1.2,0.6,1.6c0.4,0.4,1,0.7,1.7,1c0.8,0.2,1.7,0.5,2.9,0.8c1.4,0.3,2.7,0.7,3.7,1.2
				s1.8,1.1,2.4,1.9c0.6,0.8,0.8,1.8,0.8,3.1c0,1-0.2,1.9-0.6,2.7c-0.4,0.8-1,1.4-1.7,1.9s-1.5,0.8-2.5,1.1c-0.9,0.2-1.9,0.4-3,0.4
				c-1,0-2.1-0.1-3.1-0.3s-2-0.6-3-1c-0.9-0.4-1.8-0.9-2.6-1.6l1.5-2.8c0.2,0.3,0.6,0.5,1.1,0.8s1.1,0.6,1.7,0.9
				c0.6,0.3,1.3,0.5,2.1,0.7s1.5,0.3,2.3,0.3c1.3,0,2.3-0.2,3-0.7s1.1-1.1,1.1-2c0-0.7-0.2-1.2-0.7-1.7c-0.5-0.4-1.1-0.8-2-1.1
				s-1.9-0.6-3.1-0.9c-1.4-0.4-2.5-0.8-3.5-1.2c-0.9-0.5-1.6-1-2.1-1.7s-0.7-1.6-0.7-2.7c0-1.4,0.3-2.5,1-3.5s1.6-1.7,2.7-2.2
				c1.2-0.5,2.5-0.7,3.9-0.7c0.9,0,1.9,0.1,2.7,0.3s1.7,0.5,2.4,0.8c0.7,0.4,1.4,0.8,2,1.2L239.2,45.1z"/>
		</g>
	</g>
	<g>
		<g>
			<defs>
				<rect id="SVGID_00000157298357127986416260000012632616481683689381_" x="-361.6" y="-215" width="1115.5" height="557.8"/>
			</defs>
			<clipPath id="SVGID_00000008148985300518263890000013718089718565815484_">
				<use xlink:href="#SVGID_00000157298357127986416260000012632616481683689381_"  style="overflow:visible;"/>
			</clipPath>
			<path style="clip-path:url(#SVGID_00000008148985300518263890000013718089718565815484_);fill:#FFFFFF;" d="M261.2,45.1
				c-0.2-0.2-0.5-0.4-0.8-0.7s-0.8-0.5-1.3-0.7s-1.1-0.4-1.7-0.5s-1.2-0.2-1.9-0.2c-1.4,0-2.4,0.3-3.1,0.8c-0.7,0.5-1,1.2-1,2.1
				c0,0.7,0.2,1.2,0.6,1.6c0.4,0.4,1,0.7,1.7,1c0.8,0.2,1.7,0.5,2.9,0.8c1.4,0.3,2.7,0.7,3.7,1.2s1.8,1.1,2.4,1.9
				c0.6,0.8,0.8,1.8,0.8,3.1c0,1-0.2,1.9-0.6,2.7s-1,1.4-1.7,1.9s-1.5,0.8-2.5,1.1c-0.9,0.2-1.9,0.4-3,0.4c-1,0-2.1-0.1-3.1-0.3
				s-2-0.6-3-1c-0.9-0.4-1.8-0.9-2.6-1.6l1.5-2.8c0.2,0.3,0.6,0.5,1.1,0.8s1.1,0.6,1.7,0.9c0.6,0.3,1.3,0.5,2.1,0.7s1.5,0.3,2.3,0.3
				c1.3,0,2.3-0.2,3-0.7s1-1.1,1-2c0-0.7-0.2-1.2-0.7-1.7c-0.5-0.4-1.1-0.8-2-1.1s-1.9-0.6-3.1-0.9c-1.4-0.4-2.5-0.8-3.5-1.2
				c-0.9-0.5-1.6-1-2.1-1.7s-0.7-1.6-0.7-2.7c0-1.4,0.3-2.5,1-3.5s1.6-1.7,2.7-2.2c1.2-0.5,2.5-0.7,3.9-0.7c0.9,0,1.9,0.1,2.7,0.3
				s1.7,0.5,2.4,0.8c0.7,0.4,1.4,0.8,2,1.2L261.2,45.1z"/>
		</g>
	</g>
	<g>
		<g>
			<defs>
				<rect id="SVGID_00000121240799696985461660000006321535821402026132_" x="-361.6" y="-215" width="1115.5" height="557.8"/>
			</defs>
			<clipPath id="SVGID_00000102532036919523967460000005487531991253856657_">
				<use xlink:href="#SVGID_00000121240799696985461660000006321535821402026132_"  style="overflow:visible;"/>
			</clipPath>
			<path style="clip-path:url(#SVGID_00000102532036919523967460000005487531991253856657_);fill:#FFFFFF;" d="M276.3,40.1h3.1
				l8.2,21h-3.5l-2.1-5.7h-8.4l-2.1,5.7H268L276.3,40.1z M281.2,53l-3.3-9.2l-3.3,9.2H281.2z"/>
		</g>
	</g>
	<g>
		<g>
			<defs>
				<rect id="SVGID_00000089552348479580294900000007671600455721408939_" x="-361.6" y="-215" width="1115.5" height="557.8"/>
			</defs>
			<clipPath id="SVGID_00000115513730403140973830000007616374950748351902_">
				<use xlink:href="#SVGID_00000089552348479580294900000007671600455721408939_"  style="overflow:visible;"/>
			</clipPath>
			<polygon style="clip-path:url(#SVGID_00000115513730403140973830000007616374950748351902_);fill:#FFFFFF;" points="297.5,46.3 
				297.5,61.1 294.2,61.1 294.2,40.1 296.9,40.1 308.8,55.3 308.8,40.2 312.1,40.2 312.1,61.1 309.2,61.1 			"/>
		</g>
	</g>
	<g>
		<g>
			<defs>
				<rect id="SVGID_00000002379243040169375570000006826132972338601644_" x="-361.6" y="-215" width="1115.5" height="557.8"/>
			</defs>
			<clipPath id="SVGID_00000176019659450551393690000016588012629966170790_">
				<use xlink:href="#SVGID_00000002379243040169375570000006826132972338601644_"  style="overflow:visible;"/>
			</clipPath>
			<path style="clip-path:url(#SVGID_00000176019659450551393690000016588012629966170790_);fill:#FFFFFF;" d="M319.4,50.5
				c0-1.3,0.2-2.5,0.7-3.8c0.5-1.2,1.1-2.4,2-3.4s1.9-1.8,3.2-2.4c1.3-0.6,2.7-0.9,4.3-0.9c1.9,0,3.6,0.4,4.9,1.3
				c1.4,0.9,2.4,2,3.1,3.3l-2.6,1.7c-0.4-0.8-0.9-1.5-1.5-2s-1.3-0.8-2-1s-1.4-0.3-2.1-0.3c-1.1,0-2,0.2-2.9,0.7
				c-0.8,0.4-1.5,1-2.1,1.8s-1,1.5-1.3,2.5c-0.3,0.9-0.4,1.8-0.4,2.7c0,1,0.2,2,0.5,2.9s0.8,1.8,1.4,2.5s1.3,1.3,2.1,1.7
				c0.8,0.4,1.7,0.6,2.7,0.6c0.7,0,1.4-0.1,2.1-0.4c0.7-0.2,1.4-0.6,2-1.1s1.1-1.2,1.5-2l2.8,1.5c-0.4,1-1.1,1.9-2,2.7
				c-0.9,0.7-2,1.3-3.1,1.7s-2.3,0.6-3.4,0.6c-1.4,0-2.8-0.3-4-0.9c-1.2-0.6-2.3-1.5-3.2-2.5c-0.9-1-1.6-2.2-2.1-3.5
				C319.7,53.1,319.4,51.8,319.4,50.5"/>
		</g>
	</g>
	<g>
		<g>
			<defs>
				<rect id="SVGID_00000056429576245628910070000010459286898701456830_" x="-361.6" y="-215" width="1115.5" height="557.8"/>
			</defs>
			<clipPath id="SVGID_00000040566009158430491450000004232800757661859715_">
				<use xlink:href="#SVGID_00000056429576245628910070000010459286898701456830_"  style="overflow:visible;"/>
			</clipPath>
			<polygon style="clip-path:url(#SVGID_00000040566009158430491450000004232800757661859715_);fill:#FFFFFF;" points="359.3,58.2 
				359.3,61.1 344.9,61.1 344.9,40.1 359.1,40.1 359.1,43.1 348.3,43.1 348.3,49.1 357.6,49.1 357.6,51.8 348.3,51.8 348.3,58.2 			
				"/>
		</g>
	</g>
	<g>
		<g>
			<defs>
				<rect id="SVGID_00000181772155006817692900000006278982814072512137_" x="-361.6" y="-215" width="1115.5" height="557.8"/>
			</defs>
			<clipPath id="SVGID_00000121957792256138903860000006250225375787323792_">
				<use xlink:href="#SVGID_00000181772155006817692900000006278982814072512137_"  style="overflow:visible;"/>
			</clipPath>
			<polygon style="clip-path:url(#SVGID_00000121957792256138903860000006250225375787323792_);fill:#FFFFFF;" points="119.1,87.6 
				119.1,68 132.1,68 132.1,70.7 122.2,70.7 122.2,76.6 130.5,76.6 130.5,79.2 122.2,79.2 122.2,87.6 			"/>
		</g>
	</g>
	<g>
		<g>
			<defs>
				<rect id="SVGID_00000165194179979553270180000013814692987283767695_" x="-361.6" y="-215" width="1115.5" height="557.8"/>
			</defs>
			<clipPath id="SVGID_00000046341074440414259120000017091108121260264870_">
				<use xlink:href="#SVGID_00000165194179979553270180000013814692987283767695_"  style="overflow:visible;"/>
			</clipPath>
			<polygon style="clip-path:url(#SVGID_00000046341074440414259120000017091108121260264870_);fill:#FFFFFF;" points="138.7,87.6 
				138.7,68 141.9,68 141.9,84.9 152.4,84.9 152.4,87.6 			"/>
		</g>
	</g>
	<g>
		<g>
			<defs>
				<rect id="SVGID_00000054968353973521663860000001190452728746120628_" x="-361.6" y="-215" width="1115.5" height="557.8"/>
			</defs>
			<clipPath id="SVGID_00000080896774330239650770000016278049968241509303_">
				<use xlink:href="#SVGID_00000054968353973521663860000001190452728746120628_"  style="overflow:visible;"/>
			</clipPath>
			<path style="clip-path:url(#SVGID_00000080896774330239650770000016278049968241509303_);fill:#FFFFFF;" d="M164.2,68h2.9
				l7.6,19.6h-3.3l-1.9-5.3h-7.9l-1.9,5.3h-3.3L164.2,68z M168.8,80l-3.1-8.6l-3.1,8.6C162.6,80,168.8,80,168.8,80z"/>
		</g>
	</g>
	<g>
		<g>
			<defs>
				<rect id="SVGID_00000025426564133451821120000009680985156465471127_" x="-361.6" y="-215" width="1115.5" height="557.8"/>
			</defs>
			<clipPath id="SVGID_00000121969147263455500530000008661419885267957665_">
				<use xlink:href="#SVGID_00000025426564133451821120000009680985156465471127_"  style="overflow:visible;"/>
			</clipPath>
			<polygon style="clip-path:url(#SVGID_00000121969147263455500530000008661419885267957665_);fill:#FFFFFF;" points="180.5,68 
				186.5,83.9 192.4,68 195.6,68 187.9,87.6 185,87.6 177.2,68 			"/>
		</g>
	</g>
	<g>
		<g>
			<defs>
				<rect id="SVGID_00000108286852644270840650000008169601955097600901_" x="-361.6" y="-215" width="1115.5" height="557.8"/>
			</defs>
			<clipPath id="SVGID_00000051375471859486034210000011821875555068559006_">
				<use xlink:href="#SVGID_00000108286852644270840650000008169601955097600901_"  style="overflow:visible;"/>
			</clipPath>
			<path style="clip-path:url(#SVGID_00000051375471859486034210000011821875555068559006_);fill:#FFFFFF;" d="M209.1,87.8
				c-1.4,0-2.6-0.3-3.8-0.8c-1.1-0.6-2.1-1.3-3-2.3c-0.8-0.9-1.5-2-1.9-3.2c-0.5-1.2-0.7-2.4-0.7-3.7c0-1.3,0.2-2.6,0.7-3.8
				c0.5-1.2,1.1-2.2,2-3.2c0.9-0.9,1.9-1.7,3-2.2s2.4-0.8,3.7-0.8c1.4,0,2.7,0.3,3.8,0.9s2.1,1.3,2.9,2.3c0.8,1,1.5,2,1.9,3.2
				s0.7,2.4,0.7,3.7c0,1.3-0.2,2.5-0.7,3.7s-1.1,2.2-2,3.2c-0.9,0.9-1.9,1.7-3,2.2C211.7,87.5,210.4,87.8,209.1,87.8 M202.9,77.8
				c0,0.9,0.1,1.8,0.4,2.7c0.3,0.9,0.7,1.6,1.2,2.3c0.5,0.7,1.2,1.2,2,1.6s1.6,0.6,2.6,0.6s1.9-0.2,2.7-0.6s1.4-1,2-1.6
				s0.9-1.5,1.2-2.3s0.4-1.7,0.4-2.6s-0.1-1.8-0.4-2.7c-0.3-0.8-0.7-1.6-1.3-2.3s-1.2-1.2-2-1.6s-1.6-0.6-2.6-0.6s-1.9,0.2-2.7,0.6
				s-1.4,0.9-1.9,1.6s-0.9,1.4-1.2,2.3C203,76.1,202.9,76.9,202.9,77.8"/>
		</g>
	</g>
	<g>
		<g>
			<defs>
				<rect id="SVGID_00000096755772612876798980000011994461624273195181_" x="-361.6" y="-215" width="1115.5" height="557.8"/>
			</defs>
			<clipPath id="SVGID_00000004547559965722005050000015160026150570572718_">
				<use xlink:href="#SVGID_00000096755772612876798980000011994461624273195181_"  style="overflow:visible;"/>
			</clipPath>
			<path style="clip-path:url(#SVGID_00000004547559965722005050000015160026150570572718_);fill:#FFFFFF;" d="M225.4,87.6V68h8.6
				c0.9,0,1.7,0.2,2.4,0.6s1.4,0.9,1.9,1.5s1,1.3,1.3,2.1c0.3,0.8,0.5,1.5,0.5,2.3c0,0.9-0.2,1.7-0.5,2.5s-0.8,1.5-1.3,2
				c-0.6,0.6-1.3,1-2,1.2l4.6,7.5h-3.5l-4.3-6.8h-4.5v6.8L225.4,87.6L225.4,87.6z M228.5,78.1h5.4c0.6,0,1.1-0.2,1.5-0.5
				s0.8-0.8,1.1-1.3c0.3-0.6,0.4-1.2,0.4-1.8c0-0.7-0.2-1.3-0.5-1.9s-0.7-1-1.1-1.3c-0.5-0.3-1-0.5-1.5-0.5h-5.2L228.5,78.1
				L228.5,78.1z"/>
		</g>
	</g>
	<g>
		<g>
			<defs>
				<rect id="SVGID_00000029034084675669384310000008649531577512783235_" x="-361.6" y="-215" width="1115.5" height="557.8"/>
			</defs>
			<clipPath id="SVGID_00000137109231136138496070000015105217123907108766_">
				<use xlink:href="#SVGID_00000029034084675669384310000008649531577512783235_"  style="overflow:visible;"/>
			</clipPath>
			<path style="clip-path:url(#SVGID_00000137109231136138496070000015105217123907108766_);fill:#FFFFFF;" d="M258.9,72.6
				c-0.2-0.2-0.4-0.4-0.8-0.6s-0.8-0.4-1.2-0.6c-0.5-0.2-1-0.4-1.5-0.5s-1.1-0.2-1.7-0.2c-1.3,0-2.2,0.2-2.9,0.7
				c-0.6,0.5-0.9,1.1-0.9,2c0,0.6,0.2,1.1,0.5,1.5c0.4,0.4,0.9,0.7,1.6,0.9c0.7,0.2,1.6,0.5,2.7,0.7c1.3,0.3,2.5,0.7,3.5,1.1
				s1.7,1,2.2,1.7s0.8,1.7,0.8,2.9c0,1-0.2,1.8-0.6,2.5s-0.9,1.3-1.6,1.7c-0.7,0.4-1.4,0.8-2.3,1s-1.8,0.3-2.8,0.3s-1.9-0.1-2.9-0.3
				c-1-0.2-1.9-0.5-2.8-0.9c-0.9-0.4-1.7-0.9-2.4-1.5l1.4-2.7c0.2,0.2,0.6,0.5,1,0.8s1,0.6,1.6,0.8c0.6,0.3,1.3,0.5,2,0.7
				s1.4,0.3,2.2,0.3c1.2,0,2.2-0.2,2.8-0.6c0.7-0.4,1-1.1,1-1.9c0-0.6-0.2-1.2-0.6-1.6s-1.1-0.7-1.9-1c-0.8-0.3-1.8-0.6-2.9-0.8
				c-1.3-0.3-2.4-0.7-3.2-1.1c-0.9-0.4-1.5-1-1.9-1.6s-0.6-1.5-0.6-2.5c0-1.3,0.3-2.4,0.9-3.3c0.6-0.9,1.5-1.6,2.6-2
				s2.3-0.7,3.6-0.7c0.9,0,1.7,0.1,2.5,0.3c0.8,0.2,1.5,0.5,2.2,0.8s1.3,0.7,1.8,1.1L258.9,72.6z"/>
		</g>
	</g>
</g>
</svg>
