<svg xmlns="http://www.w3.org/2000/svg" xmlns:xlink="http://www.w3.org/1999/xlink" viewBox="0 0 100.37 112.69"><defs><style>.cls-1{fill:none;}.cls-2{clip-path:url(#clip-path);}.cls-3{fill:url(#linear-gradient);}.cls-4{clip-path:url(#clip-path-2);}.cls-5{clip-path:url(#clip-path-3);}.cls-6{fill:url(#linear-gradient-2);}.cls-7{clip-path:url(#clip-path-4);}.cls-8{fill:url(#linear-gradient-3);}.cls-9{clip-path:url(#clip-path-5);}.cls-10{fill:url(#linear-gradient-4);}.cls-11{clip-path:url(#clip-path-6);}.cls-12{fill:url(#linear-gradient-5);}.cls-13{clip-path:url(#clip-path-7);}.cls-14{fill:url(#linear-gradient-6);}.cls-15{clip-path:url(#clip-path-10);}.cls-16{fill:url(#linear-gradient-9);}</style><clipPath id="clip-path" transform="translate(-373.91 -219.83)"><path class="cls-1" d="M434.45,286.85H423c1.18,0,2.35.06,3.52.17a37.36,37.36,0,0,1,27.09,15.77l-11.15-15.94-.78-1.1a23.76,23.76,0,0,1-7.19,1.1"/></clipPath><linearGradient id="linear-gradient" x1="-893.4" y1="418.31" x2="-892.6" y2="418.31" gradientTransform="translate(34373.47 -15997.03) scale(38.42)" gradientUnits="userSpaceOnUse"><stop offset="0" stop-color="#6bc9c9"/><stop offset="1" stop-color="#75d1f7"/></linearGradient><clipPath id="clip-path-2" transform="translate(-373.91 -219.83)"><rect class="cls-1" width="1115.54" height="557.77"/></clipPath><clipPath id="clip-path-3" transform="translate(-373.91 -219.83)"><path class="cls-1" d="M442.42,263h0Z"/></clipPath><linearGradient id="linear-gradient-2" x1="8194.43" y1="5871.33" x2="8195.22" y2="5871.33" gradientTransform="translate(-278.69 -253.73) scale(0.09)" gradientUnits="userSpaceOnUse"><stop offset="0" stop-color="#fff"/><stop offset="1" stop-color="#1d1d1b"/></linearGradient><clipPath id="clip-path-4" transform="translate(-373.91 -219.83)"><path class="cls-1" d="M418.58,239a24,24,0,0,1,7.9,1.34l0,0h0a23.86,23.86,0,0,1,15.89,20.71c0,.61.07,1.22.07,1.84a9.13,9.13,0,0,1-.07,1.06,8,8,0,0,1-7.52,6.9,23.72,23.72,0,0,0,7.52-1.33A23.81,23.81,0,0,0,457,255a.06.06,0,0,0,0,0A23.92,23.92,0,0,0,434.45,239Z"/></clipPath><linearGradient id="linear-gradient-3" x1="-896.51" y1="401.61" x2="-895.71" y2="401.61" gradientTransform="translate(47040.91 17933.74) rotate(45) scale(51.2)" gradientUnits="userSpaceOnUse"><stop offset="0" stop-color="#f79658"/><stop offset="1" stop-color="#ffe508"/></linearGradient><clipPath id="clip-path-5" transform="translate(-373.91 -219.83)"><path class="cls-1" d="M452.32,262.94a23.82,23.82,0,0,1-17.42,8h-8.42a15.88,15.88,0,0,0-11.35,4.75,7.68,7.68,0,0,0-.55.59,15.88,15.88,0,0,0-4,10.6h23.9a23.76,23.76,0,0,0,7.19-1.1l.78-.26A23.91,23.91,0,0,0,457,270.91a23.34,23.34,0,0,0,1.38-8A23.61,23.61,0,0,0,457,255a23.53,23.53,0,0,1-4.68,7.92"/></clipPath><linearGradient id="linear-gradient-4" x1="-910.98" y1="418.98" x2="-910.19" y2="418.98" gradientTransform="translate(24210.23 -65263.59) rotate(-45) scale(69.47)" gradientUnits="userSpaceOnUse"><stop offset="0" stop-color="#69cce3"/><stop offset="1" stop-color="#f7ec2e"/></linearGradient><clipPath id="clip-path-6" transform="translate(-373.91 -219.83)"><path class="cls-1" d="M440.55,312a15.83,15.83,0,0,0,13,6.76h11.19l-6.37-9.1-4.79-6.83A37.36,37.36,0,0,0,426.48,287c-1.17-.11-2.34-.17-3.52-.17Z"/></clipPath><linearGradient id="linear-gradient-5" x1="-902.52" y1="385.97" x2="-901.72" y2="385.97" gradientTransform="translate(15508.73 36167.85) rotate(90) scale(40)" gradientUnits="userSpaceOnUse"><stop offset="0" stop-color="#90d5e1"/><stop offset="1" stop-color="#ea4498"/></linearGradient><clipPath id="clip-path-7" transform="translate(-373.91 -219.83)"><path class="cls-1" d="M394.61,239A15.92,15.92,0,0,0,410.54,255h24a8,8,0,0,1,7.9,6.91,9.28,9.28,0,0,1,.07,1.06c0-.62,0-1.23-.07-1.84a23.86,23.86,0,0,0-15.9-20.71h0v0a24,24,0,0,0-7.9-1.34Z"/></clipPath><linearGradient id="linear-gradient-6" x1="-900.85" y1="414.06" x2="-900.05" y2="414.06" gradientTransform="translate(54150.92 -24848.59) scale(60.09)" gradientUnits="userSpaceOnUse"><stop offset="0" stop-color="#ea4498"/><stop offset="1" stop-color="#faa31d"/></linearGradient><clipPath id="clip-path-10" transform="translate(-373.91 -219.83)"><path class="cls-1" d="M410.54,270.92a15.92,15.92,0,0,0-15.93,15.93v31.88a15.92,15.92,0,0,0,15.93-15.94V286.85a15.89,15.89,0,0,1,4-10.6c.18-.2.36-.39.55-.58a15.9,15.9,0,0,1,11.35-4.75Z"/></clipPath><linearGradient id="linear-gradient-9" x1="-914.35" y1="419.15" x2="-913.56" y2="419.15" gradientTransform="matrix(35.98, -62.32, 62.32, 35.98, 6799.87, -71964.6)" gradientUnits="userSpaceOnUse"><stop offset="0" stop-color="#6958a5"/><stop offset="1" stop-color="#8dd5e3"/></linearGradient></defs><g id="Layer_2" data-name="Layer 2"><g id="Layer_1-2" data-name="Layer 1"><g class="cls-2"><rect class="cls-3" x="49.06" y="65.92" width="30.61" height="17.04"/></g><g class="cls-4"><line class="cls-1" x1="83.11" y1="35.15" x2="83.08" y2="35.15"/></g><g class="cls-5"><path class="cls-6" d="M442.42,263h0Z" transform="translate(-373.91 -219.83)"/></g><g class="cls-7"><polygon class="cls-8" points="63.89 0 99.03 35.14 63.89 70.29 28.74 35.14 63.89 0"/></g><g class="cls-9"><polygon class="cls-10" points="20.73 51.1 60.55 11.28 100.37 51.1 60.55 90.92 20.73 51.1"/></g><g class="cls-11"><rect class="cls-12" x="49.06" y="67.01" width="41.77" height="31.87"/></g><g class="cls-13"><rect class="cls-14" x="20.7" y="19.21" width="47.88" height="23.91"/></g><g class="cls-5"><path class="cls-6" d="M442.42,263h0Z" transform="translate(-373.91 -219.83)"/></g><g class="cls-5"><path class="cls-6" d="M442.42,263h0Z" transform="translate(-373.91 -219.83)"/></g><g class="cls-15"><polygon class="cls-16" points="0 86.94 28.67 37.28 73.28 63.03 44.61 112.69 0 86.94"/></g></g></g></svg>